# xmcd
#
# Track frame offsets:
# 150
# 22582
# 44526
# 66995
# 88392
# 110522
# 131050
# 149452
# 171328
# 191869
# 213775
# 235216
# 256906
# 279075
# 301364
# 321402
# 336455
#
# Disc length: 4670 seconds
#
#
# Revision: 0
# Processed by: cddbd v1.5.2PL0 Copyright (c) Steve Scherf et al.
# Submitted via: FreeRIP 2.96 
#
DISCID=05123c11
DTITLE=Grisham, John - The Appeal CD4v5 new
DYEAR=2008
DGENRE=Speech
TTITLE0=54 The Appeal
TTITLE1=55 The Appeal
TTITLE2=56 The Appeal
TTITLE3=57 The Appeal
TTITLE4=58 The Appeal
TTITLE5=59 The Appeal
TTITLE6=60 The Appeal
TTITLE7=61 The Appeal
TTITLE8=62 The Appeal
TTITLE9=63 The Appeal
TTITLE10=64 The Appeal
TTITLE11=65 The Appeal
TTITLE12=66 The Appeal
TTITLE13=67 The Appeal
TTITLE14=68 The Appeal
TTITLE15=69 The Appeal
TTITLE16=70 The Appeal
EXTD=read by Michael Beck
EXTT0=
EXTT1=
EXTT2=
EXTT3=
EXTT4=
EXTT5=
EXTT6=
EXTT7=
EXTT8=
EXTT9=
EXTT10=
EXTT11=
EXTT12=
EXTT13=
EXTT14=
EXTT15=
EXTT16=
PLAYORDER=
